# xmcd
#
# Track frame offsets:
#	150
#	11073
#	27911
#	37427
#	50234
#	63721
#
# Disc length: 1003 seconds
#
# Revision: 1
# Processed by: cddbd v1.5.2PL0 Copyright (c) Steve Scherf et al.
# Submitted via: audiograbber 1.83.01
#
DISCID=5a03e906
DTITLE=The Silver Brazilians - Fender Car-Disaster
DYEAR=2008
DGENRE=Blues
TTITLE0=Cosmopolis Woman Blues
TTITLE1=Fender Car-Disaster
TTITLE2=Kate Winslet
TTITLE3=I Got Off
TTITLE4=White Cat Bone
TTITLE5=The Battle Of Morden
EXTD=
EXTT0=
EXTT1=
EXTT2=
EXTT3=
EXTT4=
EXTT5=
PLAYORDER=
